<?xml version="1.0" encoding="UTF-8"?>
<svg id="artwork" xmlns="http://www.w3.org/2000/svg" viewBox="0 0 280 270" width="280px" height="270px">
  <defs>
    <style>
      .cls-1 {
        fill: #fff;
      }

      .cls-2 {
        fill: #93aebf;
      }

      .cls-3 {
        fill: #123e59;
      }

      .cls-4 {
        fill: #30728c;
      }
    </style>
  </defs>
  <path class="cls-2" d="m172.54,137.16h-11.11c-4.32,0-7.83,3.51-7.83,7.83v59.73c0,4.32-3.51,7.83-7.83,7.83h-22.54c-4.32,0-7.83-3.51-7.83-7.83v-124.7c0-4.32-3.51-7.83-7.83-7.83h-11.11c-4.32,0-7.83,3.51-7.83,7.83v151.47c0,4.32,3.51,7.83,7.83,7.83h76.08c4.32,0,7.83-3.51,7.83-7.83v-86.5c0-4.32-3.51-7.83-7.83-7.83Z"/>
  <path class="cls-3" d="m29.53,38.56v76.08c0,4.32,3.51,7.83,7.83,7.83h28.76c4.32,0,7.83-3.51,7.83-7.83v-11.11c0-4.32-3.51-7.83-7.83-7.83h-1.98c-4.32,0-7.83-3.51-7.83-7.83v-22.54c0-4.32,3.51-7.83,7.83-7.83h81.64c4.32,0,7.83,3.51,7.83,7.83v7.85c0,4.32,3.5,7.83,7.83,7.83h11.11c4.32,0,7.83-3.51,7.83-7.83v-34.62c0-4.32-3.51-7.83-7.83-7.83H37.36c-4.32,0-7.83,3.51-7.83,7.83Z"/>
  <path class="cls-4" d="m195.06,38.56v11.11c0,4.32,3.51,7.83,7.83,7.83h1.06c4.32,0,7.83,3.51,7.83,7.83v22.54c0,4.32-3.51,7.83-7.83,7.83h-66.03c-4.32,0-7.83,3.51-7.83,7.83v11.11c0,4.32,3.51,7.83,7.83,7.83h92.8c4.32,0,7.83-3.51,7.83-7.83V38.56c0-4.32-3.51-7.83-7.83-7.83h-27.83c-4.32,0-7.83,3.51-7.83,7.83Z"/>
</svg>